<svg width="16" height="10" viewBox="0 0 16 10" fill="none" xmlns="http://www.w3.org/2000/svg">
  <path d="M8 9.3335C8.3818 9.3335 8.69256 9.20067 8.98557 8.89074L15.6448 2.09884C15.8846 1.8686 16 1.58524 16 1.23989C16 0.558039 15.4495 0.000164032 14.7658 0.000164032C14.4284 0.000164032 14.1176 0.141847 13.869 0.389791L8.00888 6.4113L2.13097 0.389791C1.89123 0.141847 1.58047 0.000164032 1.23418 0.000164032C0.550499 0.000164032 0 0.558039 0 1.23989C0 1.57638 0.115427 1.8686 0.355161 2.09884L7.01443 8.89074C7.30744 9.20067 7.62708 9.3335 8 9.3335Z" fill="#7547DD"/>
</svg>
