<svg width="134" height="134" viewBox="0 0 134 134" fill="none" xmlns="http://www.w3.org/2000/svg">
  <circle cx="67" cy="67" r="67" fill="#4F4F4F" />
  <path d="M81.8888 46.1143C81.8888 37.9273 75.2097 31.2667 66.9999 31.2667C58.7902 31.2667 52.1111 37.9273 52.1111 46.1143C52.1111 54.3013 58.7902 60.962 66.9999 60.962C75.2097 60.962 81.8888 54.3013 81.8888 46.1143ZM66.9999 60.962C52.2224 60.962 40.2 72.9511 40.2 87.6877V90.4708C40.2 91.3149 40.5601 92.119 41.1906 92.6823C48.444 99.1637 57.61 102.733 66.9999 102.733C76.3901 102.733 85.5561 99.1637 92.8093 92.6823C93.4398 92.119 93.7999 91.3147 93.7999 90.4708V87.6877C93.7999 72.9511 81.7775 60.962 66.9999 60.962Z" fill="white" fill-opacity="0.87"/>
</svg>
