<svg width="20" height="20" viewBox="0 0 20 20" fill="none" xmlns="http://www.w3.org/2000/svg">
<path d="M18.3346 7.1735V13.9585C18.3347 14.6503 18.07 15.3159 17.5949 15.8187C17.1198 16.3215 16.4703 16.6235 15.7796 16.6627L15.6263 16.6668H4.3763C3.68452 16.6669 3.01894 16.4022 2.51611 15.9271C2.01327 15.452 1.7113 14.8025 1.67214 14.1118L1.66797 13.9585V7.1735L9.7113 11.3868C9.80078 11.4337 9.90029 11.4582 10.0013 11.4582C10.1023 11.4582 10.2018 11.4337 10.2913 11.3868L18.3346 7.1735ZM4.3763 3.3335H15.6263C16.2976 3.33342 16.945 3.58266 17.443 4.03289C17.941 4.48311 18.254 5.10223 18.3213 5.77016L10.0013 10.1285L1.6813 5.77016C1.7459 5.12876 2.03718 4.53143 2.50276 4.08555C2.96834 3.63967 3.5777 3.37449 4.2213 3.33766L4.3763 3.3335Z" fill="white"/>
</svg>
