<svg width="16" height="16" viewBox="0 0 16 16" fill="none" xmlns="http://www.w3.org/2000/svg">
<path d="M15.473 7.07538L12.3089 9.80562L13.2729 13.8887C13.3261 14.1103 13.3124 14.3428 13.2335 14.5566C13.1547 14.7705 13.0142 14.9562 12.8299 15.0903C12.6456 15.2244 12.4256 15.3008 12.1979 15.3099C11.9701 15.3191 11.7447 15.2605 11.5502 15.1416L7.99947 12.9563L4.44658 15.1416C4.25211 15.2598 4.02703 15.3178 3.79966 15.3084C3.57229 15.2989 3.35281 15.2223 3.16886 15.0884C2.98491 14.9544 2.8447 14.769 2.7659 14.5555C2.6871 14.342 2.67323 14.11 2.72603 13.8887L3.69353 9.80562L0.529468 7.07538C0.357412 6.92668 0.232978 6.73058 0.171706 6.51158C0.110434 6.29258 0.115039 6.06038 0.184947 5.84398C0.254855 5.62758 0.386968 5.43657 0.564785 5.29481C0.742603 5.15304 0.958245 5.06681 1.18478 5.04687L5.33322 4.71218L6.93353 0.839368C7.02015 0.628302 7.16758 0.447761 7.35707 0.320699C7.54656 0.193637 7.76956 0.125793 7.99771 0.125793C8.22586 0.125793 8.44886 0.193637 8.63835 0.320699C8.82784 0.447761 8.97527 0.628302 9.06189 0.839368L10.6615 4.71218L14.8099 5.04687C15.0369 5.06607 15.2532 5.15182 15.4317 5.29339C15.6101 5.43496 15.7428 5.62604 15.8132 5.8427C15.8835 6.05937 15.8884 6.29197 15.8271 6.51137C15.7658 6.73077 15.6412 6.92722 15.4688 7.07609L15.473 7.07538Z" fill="currentColor"/>
</svg>
